<svg width="103" height="24" viewBox="0 0 103 24" fill="none" xmlns="http://www.w3.org/2000/svg">
<g id="Group 18">
<g id="icon">
<path id="&#60;Path&#62;" d="M16.3086 12.763C16.3205 11.8431 16.5648 10.9411 17.0189 10.141C17.473 9.34093 18.1221 8.6687 18.9058 8.18688C18.408 7.47583 17.7512 6.89066 16.9876 6.47785C16.224 6.06504 15.3747 5.83597 14.5071 5.80883C12.6563 5.61457 10.8621 6.91628 9.91899 6.91628C8.95763 6.91628 7.50557 5.82811 5.94194 5.86029C4.93054 5.89296 3.94485 6.18707 3.08092 6.71395C2.21698 7.24084 1.50426 7.98253 1.01219 8.86676C-1.11933 12.5572 0.470591 17.9808 2.51241 20.9639C3.53398 22.4246 4.7279 24.0562 6.29011 23.9984C7.81884 23.9349 8.38979 23.0235 10.2351 23.0235C12.0633 23.0235 12.5989 23.9984 14.1928 23.9616C15.8332 23.9349 16.8668 22.4944 17.8525 21.0198C18.5865 19.979 19.1513 18.8287 19.526 17.6115C18.573 17.2084 17.7597 16.5337 17.1875 15.6715C16.6154 14.8093 16.3097 13.7978 16.3086 12.763Z" fill="white"/>
<path id="&#60;Path&#62;_2" d="M13.2981 3.84712C14.1925 2.77342 14.6332 1.39335 14.5265 0C13.16 0.14352 11.8978 0.796599 10.9913 1.82911C10.5481 2.33352 10.2086 2.92033 9.99232 3.55601C9.77603 4.19169 9.68715 4.86376 9.73076 5.53381C10.4142 5.54084 11.0904 5.3927 11.7083 5.10054C12.3262 4.80838 12.8698 4.37982 13.2981 3.84712Z" fill="white"/>
</g>
<g id="text">
<g id="App Store">
<path id="Vector" d="M36.2461 17.9156H31.6057L30.4913 21.1308H28.5259L32.9211 9.23535H34.9632L39.3585 21.1308H37.3595L36.2461 17.9156ZM32.0863 16.432H35.7646L33.9513 11.2139H33.9006L32.0863 16.432Z" fill="white"/>
<path id="Vector_2" d="M48.8507 16.7949C48.8507 19.49 47.3744 21.2216 45.1466 21.2216C44.5823 21.2504 44.0211 21.1234 43.5272 20.855C43.0333 20.5867 42.6267 20.1879 42.354 19.7042H42.3119V23.9999H40.49V12.4581H42.2535V13.9006H42.287C42.5722 13.4192 42.9857 13.0225 43.4833 12.7525C43.981 12.4825 44.5442 12.3494 45.1131 12.3673C47.3658 12.3673 48.8507 14.1073 48.8507 16.7949ZM46.9781 16.7949C46.9781 15.039 46.0494 13.8847 44.6325 13.8847C43.2405 13.8847 42.3042 15.0634 42.3042 16.7949C42.3042 18.5424 43.2405 19.7127 44.6325 19.7127C46.0494 19.7127 46.9781 18.5667 46.9781 16.7949Z" fill="white"/>
<path id="Vector_3" d="M58.6197 16.7949C58.6197 19.49 57.1435 21.2216 54.9157 21.2216C54.3513 21.2504 53.7901 21.1234 53.2962 20.855C52.8023 20.5867 52.3958 20.1878 52.1231 19.7042H52.0809V23.9999H50.259V12.4581H52.0225V13.9006H52.056C52.3412 13.4192 52.7547 13.0225 53.2523 12.7525C53.75 12.4825 54.3132 12.3494 54.8821 12.3673C57.1349 12.3673 58.6197 14.1073 58.6197 16.7949ZM56.7471 16.7949C56.7471 15.039 55.8185 13.8847 54.4016 13.8847C53.0096 13.8847 52.0733 15.0633 52.0733 16.7949C52.0733 18.5424 53.0096 19.7126 54.4016 19.7126C55.8185 19.7126 56.7471 18.5667 56.7471 16.7949H56.7471Z" fill="white"/>
<path id="Vector_4" d="M65.0762 17.8166C65.2112 18.9962 66.3839 19.7707 67.9865 19.7707C69.5222 19.7707 70.627 18.9962 70.627 17.9325C70.627 17.0092 69.9606 16.4564 68.3829 16.0775L66.8052 15.7061C64.5697 15.1785 63.5319 14.1569 63.5319 12.4993C63.5319 10.4469 65.3624 9.03711 67.9617 9.03711C70.5341 9.03711 72.2976 10.4469 72.3569 12.4993H70.5178C70.4077 11.3122 69.4034 10.5956 67.9358 10.5956C66.4681 10.5956 65.4639 11.3206 65.4639 12.3758C65.4639 13.2168 66.1053 13.7117 67.6744 14.0905L69.0157 14.4123C71.5134 14.9895 72.5512 15.9699 72.5512 17.7098C72.5512 19.9353 70.737 21.3292 67.8515 21.3292C65.1518 21.3292 63.3289 19.9681 63.2112 17.8165L65.0762 17.8166Z" fill="white"/>
<path id="Vector_5" d="M76.4831 10.4058V12.4582H78.1709V13.8679H76.4831V18.6491C76.4831 19.3919 76.821 19.738 77.563 19.738C77.7633 19.7346 77.9634 19.7209 78.1623 19.6968V21.0982C77.8287 21.1591 77.4896 21.1867 77.1503 21.1805C75.3534 21.1805 74.6526 20.521 74.6526 18.839V13.8679H73.3621V12.4582H74.6526V10.4058H76.4831Z" fill="white"/>
<path id="Vector_6" d="M79.1484 16.7951C79.1484 14.0663 80.7932 12.3516 83.358 12.3516C85.9314 12.3516 87.5685 14.0662 87.5685 16.7951C87.5685 19.5313 85.94 21.2385 83.358 21.2385C80.7769 21.2385 79.1484 19.5313 79.1484 16.7951ZM85.7121 16.7951C85.7121 14.9232 84.8342 13.8184 83.358 13.8184C81.8817 13.8184 81.0048 14.9316 81.0048 16.7951C81.0048 18.6744 81.8817 19.7708 83.358 19.7708C84.8342 19.7708 85.7121 18.6744 85.7121 16.7951H85.7121Z" fill="white"/>
<path id="Vector_7" d="M89.0706 12.458H90.8082V13.9341H90.8503C90.9679 13.4731 91.2443 13.0657 91.6331 12.7803C92.0219 12.495 92.4994 12.3491 92.9853 12.3672C93.1952 12.3665 93.4046 12.3888 93.6095 12.4337V14.0988C93.3444 14.0197 93.0679 13.9833 92.7909 13.9912C92.5262 13.9807 92.2623 14.0263 92.0174 14.1249C91.7725 14.2234 91.5523 14.3726 91.3719 14.5622C91.1916 14.7517 91.0553 14.9772 90.9726 15.2231C90.8898 15.4689 90.8624 15.7294 90.8924 15.9866V21.1307H89.0706L89.0706 12.458Z" fill="white"/>
<path id="Vector_8" d="M102.009 18.5837C101.764 20.1581 100.195 21.2385 98.1876 21.2385C95.6056 21.2385 94.0029 19.5481 94.0029 16.8362C94.0029 14.1159 95.6142 12.3516 98.111 12.3516C100.567 12.3516 102.111 13.9999 102.111 16.6295V17.2394H95.842V17.347C95.8131 17.6662 95.854 17.9877 95.962 18.2903C96.07 18.5928 96.2427 18.8694 96.4685 19.1018C96.6943 19.3341 96.9682 19.5169 97.2718 19.6378C97.5755 19.7588 97.902 19.8153 98.2297 19.8035C98.6602 19.8429 99.0923 19.7455 99.4616 19.5257C99.8309 19.3059 100.118 18.9755 100.279 18.5837L102.009 18.5837ZM95.8506 15.9952H100.288C100.304 15.7082 100.26 15.421 100.157 15.1517C100.055 14.8823 99.8961 14.6365 99.6917 14.4299C99.4873 14.2232 99.2413 14.06 98.9693 13.9506C98.6973 13.8412 98.4051 13.7879 98.111 13.7941C97.8143 13.7923 97.5202 13.848 97.2457 13.9579C96.9711 14.0679 96.7216 14.2298 96.5114 14.4345C96.3013 14.6391 96.1347 14.8824 96.0213 15.1503C95.9079 15.4182 95.8499 15.7053 95.8506 15.9952V15.9952Z" fill="white"/>
</g>
<g id="Download">
<path id="Vector_9" d="M31.858 0.281877C32.24 0.255094 32.6232 0.311477 32.9802 0.446959C33.3372 0.582441 33.6589 0.793644 33.9222 1.06534C34.1855 1.33703 34.3838 1.66243 34.5028 2.01808C34.6218 2.37373 34.6586 2.75076 34.6104 3.12197C34.6104 4.94801 33.6004 5.99765 31.858 5.99765H29.7451V0.281877H31.858ZM30.6536 5.18932H31.7565C32.0295 5.20526 32.3026 5.16153 32.5561 5.06132C32.8095 4.96111 33.0369 4.80693 33.2217 4.61001C33.4065 4.4131 33.544 4.1784 33.6243 3.923C33.7045 3.6676 33.7255 3.39793 33.6856 3.13361C33.7226 2.87034 33.6995 2.60234 33.618 2.34882C33.5365 2.09529 33.3987 1.86251 33.2143 1.66716C33.0299 1.47181 32.8036 1.31873 32.5516 1.21888C32.2996 1.11903 32.0281 1.07488 31.7565 1.08961H30.6536V5.18932Z" fill="white"/>
<path id="Vector_10" d="M35.6368 3.83866C35.609 3.55519 35.6422 3.26918 35.7342 2.99898C35.8262 2.72878 35.975 2.48035 36.171 2.26963C36.367 2.0589 36.6059 1.89053 36.8725 1.77532C37.139 1.6601 37.4272 1.60059 37.7186 1.60059C38.01 1.60059 38.2982 1.6601 38.5647 1.77532C38.8312 1.89053 39.0702 2.0589 39.2662 2.26963C39.4622 2.48035 39.611 2.72878 39.703 2.99898C39.7949 3.26918 39.8281 3.55519 39.8004 3.83866C39.8287 4.12242 39.7959 4.40882 39.7041 4.67945C39.6124 4.95009 39.4637 5.19898 39.2676 5.41012C39.0716 5.62126 38.8325 5.78998 38.5657 5.90544C38.2989 6.02091 38.0104 6.08055 37.7186 6.08055C37.4268 6.08055 37.1383 6.02091 36.8715 5.90544C36.6047 5.78998 36.3656 5.62126 36.1696 5.41012C35.9735 5.19898 35.8248 4.95009 35.7331 4.67945C35.6413 4.40882 35.6085 4.12242 35.6368 3.83866ZM38.9043 3.83866C38.9043 2.90366 38.4744 2.35687 37.72 2.35687C36.9628 2.35687 36.5368 2.90366 36.5368 3.83867C36.5368 4.78116 36.9628 5.32373 37.72 5.32373C38.4744 5.32372 38.9043 4.7774 38.9043 3.83866H38.9043Z" fill="white"/>
<path id="Vector_11" d="M45.3347 5.99754H44.431L43.5186 2.82068H43.4497L42.5411 5.99754H41.646L40.4292 1.68408H41.3129L42.1036 4.97551H42.1687L43.0763 1.68408H43.9121L44.8197 4.97551H44.8886L45.6756 1.68408H46.5468L45.3347 5.99754Z" fill="white"/>
<path id="Vector_12" d="M47.5703 1.6837H48.409V2.36893H48.4741C48.5845 2.12282 48.7708 1.91651 49.0069 1.77876C49.243 1.641 49.5173 1.57867 49.7914 1.60044C50.0062 1.58466 50.2219 1.6163 50.4224 1.69303C50.623 1.76975 50.8034 1.8896 50.9501 2.04367C51.0968 2.19775 51.2062 2.38211 51.2701 2.5831C51.3341 2.78409 51.3509 2.99656 51.3194 3.20477V5.99711H50.4482V3.41854C50.4482 2.72536 50.1399 2.38063 49.4956 2.38063C49.3497 2.37399 49.2042 2.39824 49.0688 2.45172C48.9335 2.50521 48.8116 2.58665 48.7115 2.69047C48.6113 2.7943 48.5354 2.91805 48.4888 3.05324C48.4422 3.18843 48.4261 3.33187 48.4415 3.47372V5.99716H47.5703L47.5703 1.6837Z" fill="white"/>
<path id="Vector_13" d="M52.7075 0H53.5787V5.99731H52.7075V0Z" fill="white"/>
<path id="Vector_14" d="M54.7899 3.83874C54.7621 3.55525 54.7953 3.26923 54.8873 2.99902C54.9794 2.72881 55.1282 2.48037 55.3242 2.26964C55.5202 2.05891 55.7592 1.89054 56.0257 1.77532C56.2922 1.6601 56.5804 1.60059 56.8719 1.60059C57.1633 1.60059 57.4516 1.6601 57.7181 1.77532C57.9846 1.89054 58.2235 2.05891 58.4196 2.26964C58.6156 2.48037 58.7644 2.72881 58.8564 2.99902C58.9484 3.26923 58.9816 3.55525 58.9539 3.83874C58.9822 4.12251 58.9493 4.40891 58.8576 4.67955C58.7658 4.95018 58.6171 5.19906 58.421 5.4102C58.2249 5.62133 57.9858 5.79005 57.719 5.9055C57.4522 6.02096 57.1637 6.08061 56.8719 6.08061C56.5801 6.08061 56.2915 6.02096 56.0248 5.9055C55.758 5.79005 55.5189 5.62133 55.3228 5.4102C55.1267 5.19906 54.978 4.95018 54.8862 4.67955C54.7944 4.40891 54.7616 4.12251 54.7899 3.83874ZM58.0573 3.83874C58.0573 2.90374 57.6275 2.35696 56.8731 2.35696C56.1158 2.35696 55.6898 2.90374 55.6898 3.83875C55.6898 4.78124 56.1158 5.32381 56.8731 5.32381C57.6275 5.3238 58.0573 4.77748 58.0573 3.83874H58.0573Z" fill="white"/>
<path id="Vector_15" d="M59.8711 4.77744C59.8711 4.001 60.4627 3.55338 61.513 3.48976L62.7087 3.42241V3.0501C62.7087 2.59452 62.4004 2.33727 61.805 2.33727C61.3186 2.33727 60.9816 2.51173 60.8849 2.8167H60.0415C60.1305 2.0758 60.8438 1.60059 61.8452 1.60059C62.9519 1.60059 63.5761 2.13894 63.5761 3.0501V5.9973H62.7374V5.39112H62.6685C62.5286 5.60856 62.3321 5.78582 62.0992 5.90481C61.8662 6.02379 61.6051 6.08023 61.3426 6.06837C61.1572 6.0872 60.9699 6.06788 60.7927 6.01166C60.6155 5.95543 60.4523 5.86354 60.3137 5.74191C60.1751 5.62028 60.0641 5.47162 59.9878 5.3055C59.9116 5.13938 59.8718 4.9595 59.8711 4.77744ZM62.7087 4.40886V4.04824L61.6307 4.11559C61.0228 4.15535 60.7471 4.35741 60.7471 4.73768C60.7471 5.1259 61.0917 5.35181 61.5657 5.35181C61.7045 5.36555 61.8448 5.35185 61.9781 5.31153C62.1114 5.27121 62.2351 5.20509 62.3418 5.11712C62.4484 5.02914 62.5359 4.9211 62.5989 4.79943C62.6619 4.67775 62.6993 4.54493 62.7087 4.40886Z" fill="white"/>
<path id="Vector_16" d="M64.7209 3.83872C64.7209 2.47574 65.438 1.6123 66.5533 1.6123C66.8292 1.59988 67.103 1.66445 67.3427 1.79845C67.5825 1.93246 67.7782 2.13037 67.9071 2.36906H67.9722V0H68.8434V5.99731H68.0085V5.31581H67.9396C67.8008 5.55289 67.5982 5.74834 67.3539 5.88099C67.1095 6.01365 66.8327 6.07846 66.5533 6.06839C65.4304 6.06844 64.7209 5.20498 64.7209 3.83872ZM65.6209 3.83872C65.6209 4.75362 66.0623 5.30414 66.8004 5.30414C67.5347 5.30414 67.9885 4.74568 67.9885 3.84247C67.9885 2.94348 67.5299 2.37705 66.8004 2.37705C66.067 2.37705 65.6209 2.93131 65.6209 3.83872H65.6209Z" fill="white"/>
<path id="Vector_17" d="M72.4478 3.83866C72.4201 3.55519 72.4533 3.26918 72.5453 2.99898C72.6373 2.72878 72.786 2.48035 72.982 2.26963C73.1781 2.0589 73.417 1.89053 73.6835 1.77532C73.95 1.6601 74.2382 1.60059 74.5296 1.60059C74.821 1.60059 75.1093 1.6601 75.3758 1.77532C75.6423 1.89053 75.8812 2.0589 76.0772 2.26963C76.2732 2.48035 76.422 2.72878 76.514 2.99898C76.606 3.26918 76.6392 3.55519 76.6114 3.83866C76.6397 4.12242 76.6069 4.40882 76.5151 4.67945C76.4234 4.95009 76.2747 5.19898 76.0786 5.41012C75.8826 5.62126 75.6435 5.78998 75.3767 5.90544C75.1099 6.02091 74.8214 6.08055 74.5296 6.08055C74.2379 6.08055 73.9493 6.02091 73.6825 5.90544C73.4158 5.78998 73.1767 5.62126 72.9806 5.41012C72.7845 5.19898 72.6358 4.95009 72.5441 4.67945C72.4523 4.40882 72.4196 4.12242 72.4478 3.83866ZM75.7153 3.83866C75.7153 2.90366 75.2855 2.35687 74.5311 2.35687C73.7738 2.35687 73.3478 2.90366 73.3478 3.83867C73.3478 4.78116 73.7738 5.32373 74.5311 5.32373C75.2855 5.32372 75.7153 4.7774 75.7153 3.83866Z" fill="white"/>
<path id="Vector_18" d="M77.7803 1.6837H78.6189V2.36893H78.684C78.7945 2.12282 78.9807 1.91651 79.2169 1.77876C79.453 1.641 79.7273 1.57867 80.0014 1.60044C80.2162 1.58466 80.4318 1.6163 80.6324 1.69303C80.833 1.76975 81.0133 1.8896 81.1601 2.04367C81.3068 2.19775 81.4162 2.38211 81.4801 2.5831C81.544 2.78409 81.5608 2.99656 81.5293 3.20477V5.99711H80.6581V3.41854C80.6581 2.72536 80.3498 2.38063 79.7055 2.38063C79.5597 2.37399 79.4141 2.39824 79.2788 2.45172C79.1434 2.50521 79.0215 2.58665 78.9214 2.69047C78.8213 2.7943 78.7453 2.91805 78.6987 3.05324C78.6522 3.18843 78.636 3.33187 78.6515 3.47372V5.99716H77.7803V1.6837Z" fill="white"/>
<path id="Vector_19" d="M86.4521 0.609863V1.70343H87.4085V2.42047H86.4521V4.63848C86.4521 5.09031 86.6426 5.28816 87.0763 5.28816C87.1873 5.28781 87.2983 5.28125 87.4085 5.26851V5.97759C87.2521 6.00494 87.0935 6.01949 86.9346 6.02109C85.9658 6.02109 85.5799 5.68806 85.5799 4.85643V2.42043H84.8792V1.70339H85.5799V0.609863H86.4521Z" fill="white"/>
<path id="Vector_20" d="M88.5986 0H89.4622V2.37704H89.5311C89.6469 2.12863 89.8383 1.92115 90.0792 1.78288C90.32 1.6446 90.5987 1.58226 90.8771 1.60434C91.0908 1.59298 91.3044 1.62784 91.5027 1.70643C91.701 1.78502 91.8791 1.9054 92.0243 2.05899C92.1695 2.21258 92.2783 2.3956 92.3427 2.59497C92.4072 2.79435 92.4259 3.00518 92.3974 3.21241V5.99732H91.5253V3.42242C91.5253 2.73344 91.1969 2.38451 90.5814 2.38451C90.4316 2.37251 90.281 2.39262 90.1401 2.44345C89.9991 2.49427 89.8712 2.57457 89.7654 2.67873C89.6595 2.78289 89.5782 2.9084 89.5272 3.04647C89.4761 3.18455 89.4566 3.33185 89.4699 3.47808V5.9973H88.5987L88.5986 0Z" fill="white"/>
<path id="Vector_21" d="M97.4772 4.83271C97.3588 5.22693 97.1023 5.56794 96.7527 5.79607C96.403 6.0242 95.9824 6.12492 95.5644 6.08063C95.2735 6.08813 94.9845 6.0337 94.7174 5.92111C94.4502 5.80853 94.2113 5.64049 94.0173 5.42866C93.8233 5.21683 93.6788 4.96627 93.5938 4.69439C93.5088 4.42251 93.4854 4.13582 93.5252 3.85421C93.4864 3.57173 93.5103 3.28442 93.5951 3.01173C93.6798 2.73903 93.8236 2.48732 94.0166 2.27363C94.2096 2.05995 94.4473 1.88927 94.7137 1.77317C94.9801 1.65706 95.2689 1.59823 95.5605 1.60066C96.7888 1.60066 97.5298 2.42064 97.5298 3.77514V4.07219H94.4126V4.11989C94.399 4.27818 94.4194 4.43752 94.4724 4.58767C94.5255 4.73782 94.6101 4.87549 94.7208 4.99183C94.8314 5.10818 94.9658 5.20064 95.1152 5.26328C95.2646 5.32593 95.4257 5.35738 95.5883 5.35561C95.7967 5.38006 96.0078 5.34339 96.1948 5.25027C96.3818 5.15716 96.5363 5.0118 96.6385 4.83268L97.4772 4.83271ZM94.4126 3.4426H96.6423C96.6533 3.29783 96.6332 3.15242 96.5832 3.01571C96.5333 2.87899 96.4546 2.754 96.3523 2.64877C96.2499 2.54353 96.1262 2.46038 95.989 2.40465C95.8518 2.34893 95.7042 2.32186 95.5557 2.32518C95.405 2.32333 95.2555 2.35098 95.1159 2.40648C94.9764 2.46199 94.8496 2.54424 94.743 2.64838C94.6365 2.75251 94.5524 2.87644 94.4957 3.01284C94.4389 3.14925 94.4107 3.29537 94.4126 3.4426H94.4126Z" fill="white"/>
</g>
</g>
</g>
</svg>
