<svg width="106" height="24" viewBox="0 0 106 24" fill="none" xmlns="http://www.w3.org/2000/svg">
<g id="Group 17">
<g id="Google Play logo" filter="url(#filter0_ii_32_38540)">
<path id="Vector" d="M0.430349 0.370851C0.159871 0.658248 -3.97116e-07 1.10427 -3.97116e-07 1.68187V22.3184C-3.97116e-07 22.897 0.159871 23.3421 0.430349 23.6295L0.49913 23.6966L12.0144 12.1364V12.0002V11.8639L0.49913 0.302735L0.430349 0.370851Z" fill="url(#paint0_linear_32_38540)"/>
<path id="Vector_2" d="M15.852 15.9906L12.0142 12.136V11.9997V11.8635L15.8529 8.00977L15.9393 8.05922L20.4873 10.6533C21.7858 11.3941 21.7858 12.6062 20.4873 13.3481L15.9393 15.9421L15.852 15.9906Z" fill="url(#paint1_linear_32_38540)"/>
<g id="Vector_3" filter="url(#filter1_i_32_38540)">
<path d="M15.9397 15.941L12.0136 11.9995L0.430421 23.6288C0.857981 24.0842 1.56531 24.1402 2.36188 23.6867L15.9397 15.941Z" fill="url(#paint2_linear_32_38540)"/>
</g>
<path id="Vector_4" d="M15.9397 8.05838L2.36188 0.313594C1.56531 -0.140829 0.857981 -0.0839091 0.430421 0.371447L12.0145 12.0008L15.9397 8.05838Z" fill="url(#paint3_linear_32_38540)"/>
</g>
<g id="text">
<g id="Get it on">
<path id="path42" d="M36.3639 2.97943C36.3639 3.71855 36.1464 4.30684 35.7105 4.74608C35.215 5.26822 34.5703 5.5293 33.7775 5.5293C33.0171 5.5293 32.3716 5.2647 31.8409 4.73461C31.3086 4.20541 31.0437 3.54832 31.0437 2.7651C31.0437 1.981 31.3086 1.32479 31.8409 0.794709C32.3716 0.265508 33.0171 2.47955e-05 33.7775 2.47955e-05C34.1537 2.47955e-05 34.5151 0.0741129 34.8571 0.222289C35.2001 0.370466 35.4746 0.567152 35.6807 0.813231L35.2176 1.27893C34.8694 0.860859 34.3897 0.650942 33.7775 0.650942C33.2232 0.650942 32.7443 0.846747 32.34 1.23836C31.9357 1.63085 31.7339 2.13888 31.7339 2.7651C31.7339 3.39044 31.9357 3.89936 32.34 4.29097C32.7443 4.68346 33.2232 4.87838 33.7775 4.87838C34.3651 4.87838 34.8545 4.68169 35.2474 4.28744C35.5018 4.03078 35.6482 3.67445 35.6877 3.2158H33.7775V2.57988H36.3271C36.3516 2.71836 36.3639 2.85154 36.3639 2.97943Z" fill="white"/>
<path id="path46" d="M36.3639 2.97943C36.3639 3.71855 36.1464 4.30684 35.7105 4.74608C35.215 5.26822 34.5703 5.5293 33.7775 5.5293C33.0171 5.5293 32.3716 5.2647 31.8409 4.73461C31.3086 4.20541 31.0437 3.54832 31.0437 2.7651C31.0437 1.981 31.3086 1.32479 31.8409 0.794709C32.3716 0.265508 33.0171 2.47955e-05 33.7775 2.47955e-05C34.1537 2.47955e-05 34.5151 0.0741129 34.8571 0.222289C35.2001 0.370466 35.4746 0.567152 35.6807 0.813231L35.2176 1.27893C34.8694 0.860859 34.3897 0.650942 33.7775 0.650942C33.2232 0.650942 32.7443 0.846747 32.34 1.23836C31.9357 1.63085 31.7339 2.13888 31.7339 2.7651C31.7339 3.39044 31.9357 3.89936 32.34 4.29097C32.7443 4.68346 33.2232 4.87838 33.7775 4.87838C34.3651 4.87838 34.8545 4.68169 35.2474 4.28744C35.5018 4.03078 35.6482 3.67445 35.6877 3.2158H33.7775V2.57988H36.3271C36.3516 2.71836 36.3639 2.85154 36.3639 2.97943Z" fill="white"/>
<path id="path50" d="M40.4065 0.769155H38.0104V2.44672H40.1715V3.08265H38.0104V4.76022H40.4065V5.41113H37.3342V0.119119H40.4065V0.769155Z" fill="white"/>
<path id="path54" d="M40.4065 0.769155H38.0104V2.44672H40.1715V3.08265H38.0104V4.76022H40.4065V5.41113H37.3342V0.119119H40.4065V0.769155Z" fill="white"/>
<path id="path58" d="M43.2577 5.41113H42.5815V0.769155H41.1116V0.119119H44.7277V0.769155H43.2577V5.41113Z" fill="white"/>
<path id="path62" d="M43.2577 5.41113H42.5815V0.769155H41.1116V0.119119H44.7277V0.769155H43.2577V5.41113Z" fill="white"/>
<path id="path64" d="M47.3442 0.119119H48.0204V5.41113H47.3442V0.119119Z" fill="white"/>
<path id="path68" d="M51.0194 5.41113H50.3432V0.769155H48.8733V0.119119H52.4894V0.769155H51.0194V5.41113Z" fill="white"/>
<path id="path72" d="M51.0194 5.41113H50.3432V0.769155H48.8733V0.119119H52.4894V0.769155H51.0194V5.41113Z" fill="white"/>
<path id="path76" d="M55.9755 4.28391C56.3649 4.68081 56.8412 4.87838 57.4051 4.87838C57.9691 4.87838 58.4453 4.68081 58.8347 4.28391C59.2241 3.88701 59.4197 3.38074 59.4197 2.7651C59.4197 2.14946 59.2241 1.64231 58.8347 1.24629C58.4453 0.849393 57.9691 0.650942 57.4051 0.650942C56.8412 0.650942 56.3649 0.849393 55.9755 1.24629C55.587 1.64231 55.3914 2.14946 55.3914 2.7651C55.3914 3.38074 55.587 3.88701 55.9755 4.28391ZM59.3346 4.72667C58.8172 5.26205 58.1743 5.5293 57.4051 5.5293C56.6359 5.5293 55.9931 5.26205 55.4765 4.72667C54.959 4.19218 54.7012 3.53862 54.7012 2.7651C54.7012 1.99159 54.959 1.33714 55.4765 0.802647C55.9931 0.268153 56.6359 2.47955e-05 57.4051 2.47955e-05C58.1699 2.47955e-05 58.811 0.269035 59.3311 0.806175C59.8503 1.34331 60.11 1.996 60.11 2.7651C60.11 3.53862 59.8512 4.19218 59.3346 4.72667Z" fill="white"/>
<path id="path80" d="M55.9755 4.28391C56.3649 4.68081 56.8412 4.87838 57.4051 4.87838C57.9691 4.87838 58.4453 4.68081 58.8347 4.28391C59.2241 3.88701 59.4197 3.38074 59.4197 2.7651C59.4197 2.14946 59.2241 1.64231 58.8347 1.24629C58.4453 0.849393 57.9691 0.650942 57.4051 0.650942C56.8412 0.650942 56.3649 0.849393 55.9755 1.24629C55.587 1.64231 55.3914 2.14946 55.3914 2.7651C55.3914 3.38074 55.587 3.88701 55.9755 4.28391ZM59.3346 4.72667C58.8172 5.26205 58.1743 5.5293 57.4051 5.5293C56.6359 5.5293 55.9931 5.26205 55.4765 4.72667C54.959 4.19218 54.7012 3.53862 54.7012 2.7651C54.7012 1.99159 54.959 1.33714 55.4765 0.802647C55.9931 0.268153 56.6359 2.47955e-05 57.4051 2.47955e-05C58.1699 2.47955e-05 58.811 0.269035 59.3311 0.806175C59.8503 1.34331 60.11 1.996 60.11 2.7651C60.11 3.53862 59.8512 4.19218 59.3346 4.72667Z" fill="white"/>
<path id="path84" d="M61.0588 5.41113V0.119119H61.8815L64.439 4.23542H64.4688L64.439 3.21583V0.119119H65.1161V5.41113H64.4101L61.7342 1.09461H61.7052L61.7342 2.11509V5.41113H61.0588Z" fill="white"/>
<path id="path88" d="M61.0588 5.41113V0.119119H61.8815L64.439 4.23542H64.4688L64.439 3.21583V0.119119H65.1161V5.41113H64.4101L61.7342 1.09461H61.7052L61.7342 2.11509V5.41113H61.0588Z" fill="white"/>
</g>
<path id="Google Play" d="M88.564 20.405H90.2006V9.37905H88.564V20.405ZM103.305 13.3507L101.429 18.1312H101.372L99.4254 13.3507H97.6625L100.582 20.0319L98.9185 23.7486H100.624L105.124 13.3507H103.305ZM94.0236 19.1525C93.4869 19.1525 92.7396 18.8835 92.7396 18.2158C92.7396 17.3656 93.6702 17.0392 94.4744 17.0392C95.1936 17.0392 95.533 17.1954 95.9698 17.4079C95.8426 18.4293 94.9682 19.1525 94.0236 19.1525ZM94.221 13.1099C93.0361 13.1099 91.8082 13.6347 91.3013 14.7981L92.7537 15.4075C93.0641 14.7981 93.6421 14.5987 94.249 14.5987C95.0954 14.5987 95.9558 15.1094 95.9698 16.0179V16.1308C95.6734 15.9605 95.0393 15.7057 94.2631 15.7057C92.6975 15.7057 91.103 16.5709 91.103 18.1876C91.103 19.6632 92.387 20.614 93.8254 20.614C94.9261 20.614 95.533 20.1174 95.9137 19.5353H95.9698V20.3864H97.5494V16.159C97.5494 14.2018 96.097 13.1099 94.221 13.1099ZM84.1068 14.6931H81.7791V10.9137H84.1068C85.3303 10.9137 86.0249 11.9324 86.0249 12.803C86.0249 13.6576 85.3303 14.6931 84.1068 14.6931ZM84.0647 9.37905H80.1434V20.405H81.7791V16.2278H84.0647C85.8784 16.2278 87.6615 14.9066 87.6615 12.803C87.6615 10.6994 85.8784 9.37905 84.0647 9.37905ZM62.6813 19.1543C61.5508 19.1543 60.6044 18.2026 60.6044 16.8955C60.6044 15.5742 61.5508 14.6076 62.6813 14.6076C63.7978 14.6076 64.6731 15.5742 64.6731 16.8955C64.6731 18.2026 63.7978 19.1543 62.6813 19.1543ZM64.5608 13.9681H64.5038C64.1363 13.528 63.4303 13.1302 62.5401 13.1302C60.6746 13.1302 58.9652 14.7778 58.9652 16.8955C58.9652 18.9982 60.6746 20.6325 62.5401 20.6325C63.4303 20.6325 64.1363 20.2347 64.5038 19.7796H64.5608V20.3203C64.5608 21.7553 63.7978 22.5226 62.5681 22.5226C61.5648 22.5226 60.943 21.7976 60.6886 21.1864L59.2617 21.7835C59.6712 22.7784 60.7597 24 62.5681 24C64.4898 24 66.1149 22.8631 66.1149 20.0927V13.3569H64.5608V13.9681ZM67.2455 20.405H68.8847V9.37817H67.2455V20.405ZM71.3001 16.7676C71.258 15.3185 72.4166 14.5793 73.2498 14.5793C73.9005 14.5793 74.4513 14.9057 74.6346 15.3749L71.3001 16.7676ZM76.387 15.5169C76.0765 14.679 75.1293 13.1302 73.1936 13.1302C71.272 13.1302 69.6758 14.6499 69.6758 16.8814C69.6758 18.9841 71.258 20.6325 73.3769 20.6325C75.0872 20.6325 76.0765 19.5812 76.4861 18.9699L75.2144 18.117C74.7907 18.7424 74.211 19.1543 73.3769 19.1543C72.5437 19.1543 71.95 18.7706 71.5685 18.0183L76.5563 15.9429L76.387 15.5169ZM36.6495 14.2812V15.8723H40.4357C40.3226 16.7676 40.0261 17.4211 39.5745 17.8754C39.0228 18.4302 38.1607 19.0414 36.6495 19.0414C34.3174 19.0414 32.4949 17.1513 32.4949 14.8069C32.4949 12.4616 34.3174 10.5724 36.6495 10.5724C37.9072 10.5724 38.8255 11.0698 39.5034 11.7093L40.6199 10.5865C39.6727 9.67717 38.4159 8.98038 36.6495 8.98038C33.4561 8.98038 30.7715 11.5955 30.7715 14.8069C30.7715 18.0183 33.4561 20.6325 36.6495 20.6325C38.3729 20.6325 39.6727 20.0636 40.6901 18.9982C41.7364 17.9468 42.0609 16.4695 42.0609 15.2752C42.0609 14.9057 42.0328 14.5652 41.9758 14.2812H36.6495ZM46.3664 19.1543C45.2358 19.1543 44.2605 18.2167 44.2605 16.8814C44.2605 15.531 45.2358 14.6076 46.3664 14.6076C47.496 14.6076 48.4713 15.531 48.4713 16.8814C48.4713 18.2167 47.496 19.1543 46.3664 19.1543ZM46.3664 13.1302C44.3026 13.1302 42.6213 14.7072 42.6213 16.8814C42.6213 19.0414 44.3026 20.6325 46.3664 20.6325C48.4292 20.6325 50.1105 19.0414 50.1105 16.8814C50.1105 14.7072 48.4292 13.1302 46.3664 13.1302ZM54.5343 19.1543C53.4038 19.1543 52.4285 18.2167 52.4285 16.8814C52.4285 15.531 53.4038 14.6076 54.5343 14.6076C55.6649 14.6076 56.6393 15.531 56.6393 16.8814C56.6393 18.2167 55.6649 19.1543 54.5343 19.1543ZM54.5343 13.1302C52.4715 13.1302 50.7902 14.7072 50.7902 16.8814C50.7902 19.0414 52.4715 20.6325 54.5343 20.6325C56.5972 20.6325 58.2785 19.0414 58.2785 16.8814C58.2785 14.7072 56.5972 13.1302 54.5343 13.1302Z" fill="white"/>
</g>
</g>
<defs>
<filter id="filter0_ii_32_38540" x="0" y="0" width="21.4612" height="24" filterUnits="userSpaceOnUse" color-interpolation-filters="sRGB">
<feFlood flood-opacity="0" result="BackgroundImageFix"/>
<feBlend mode="normal" in="SourceGraphic" in2="BackgroundImageFix" result="shape"/>
<feColorMatrix in="SourceAlpha" type="matrix" values="0 0 0 0 0 0 0 0 0 0 0 0 0 0 0 0 0 0 127 0" result="hardAlpha"/>
<feOffset dy="-0.795"/>
<feComposite in2="hardAlpha" operator="arithmetic" k2="-1" k3="1"/>
<feColorMatrix type="matrix" values="0 0 0 0 0 0 0 0 0 0 0 0 0 0 0 0 0 0 0.12 0"/>
<feBlend mode="normal" in2="shape" result="effect1_innerShadow_32_38540"/>
<feColorMatrix in="SourceAlpha" type="matrix" values="0 0 0 0 0 0 0 0 0 0 0 0 0 0 0 0 0 0 127 0" result="hardAlpha"/>
<feOffset dy="0.795"/>
<feComposite in2="hardAlpha" operator="arithmetic" k2="-1" k3="1"/>
<feColorMatrix type="matrix" values="0 0 0 0 1 0 0 0 0 1 0 0 0 0 1 0 0 0 0.25 0"/>
<feBlend mode="normal" in2="effect1_innerShadow_32_38540" result="effect2_innerShadow_32_38540"/>
</filter>
<filter id="filter1_i_32_38540" x="0.43042" y="11.9995" width="15.5093" height="12.0005" filterUnits="userSpaceOnUse" color-interpolation-filters="sRGB">
<feFlood flood-opacity="0" result="BackgroundImageFix"/>
<feBlend mode="normal" in="SourceGraphic" in2="BackgroundImageFix" result="shape"/>
<feColorMatrix in="SourceAlpha" type="matrix" values="0 0 0 0 0 0 0 0 0 0 0 0 0 0 0 0 0 0 127 0" result="hardAlpha"/>
<feOffset dy="-0.795"/>
<feComposite in2="hardAlpha" operator="arithmetic" k2="-1" k3="1"/>
<feColorMatrix type="matrix" values="0 0 0 0 0 0 0 0 0 0 0 0 0 0 0 0 0 0 0.08 0"/>
<feBlend mode="normal" in2="shape" result="effect1_innerShadow_32_38540"/>
</filter>
<linearGradient id="paint0_linear_32_38540" x1="10.9937" y1="1.46352" x2="-4.66559" y2="17.0619" gradientUnits="userSpaceOnUse">
<stop stop-color="#00A0FF"/>
<stop offset="0.0066" stop-color="#00A1FF"/>
<stop offset="0.2601" stop-color="#00BEFF"/>
<stop offset="0.5122" stop-color="#00D2FF"/>
<stop offset="0.7604" stop-color="#00DFFF"/>
<stop offset="1" stop-color="#00E3FF"/>
</linearGradient>
<linearGradient id="paint1_linear_32_38540" x1="22.1775" y1="11.9997" x2="-0.312025" y2="11.9997" gradientUnits="userSpaceOnUse">
<stop stop-color="#FFE000"/>
<stop offset="0.4087" stop-color="#FFBD00"/>
<stop offset="0.7754" stop-color="#FFA500"/>
<stop offset="1" stop-color="#FF9C00"/>
</linearGradient>
<linearGradient id="paint2_linear_32_38540" x1="13.8076" y1="14.14" x2="-7.42837" y2="35.2933" gradientUnits="userSpaceOnUse">
<stop stop-color="#FF3A44"/>
<stop offset="1" stop-color="#C31162"/>
</linearGradient>
<linearGradient id="paint3_linear_32_38540" x1="-2.48684" y1="-6.49827" x2="6.99559" y2="2.9473" gradientUnits="userSpaceOnUse">
<stop stop-color="#32A071"/>
<stop offset="0.0685" stop-color="#2DA771"/>
<stop offset="0.4762" stop-color="#15CF74"/>
<stop offset="0.8009" stop-color="#06E775"/>
<stop offset="1" stop-color="#00F076"/>
</linearGradient>
</defs>
</svg>
