<svg width="37" height="40" viewBox="0 0 37 40" fill="none" xmlns="http://www.w3.org/2000/svg">
<path id="Vector" d="M35.1427 9.80039C30.8216 2.53076 17.0493 3.3792 14.1832 3.64053L13.7674 0.45212C13.741 0.252958 13.604 0.0868303 13.4156 0.0247586C13.2258 -0.0360755 13.0185 0.0171424 12.8828 0.162992L3.36492 10.3521C3.25815 10.4662 3.20911 10.6223 3.2292 10.777C3.24929 10.933 3.33851 11.0699 3.47047 11.1511L9.91434 15.132L0.366901 18.0224C0.328513 18.034 0.29852 18.0581 0.265131 18.0774C0.249568 18.0863 0.230704 18.0866 0.216085 18.0972C0.211557 18.1005 0.20986 18.1062 0.205521 18.1096C0.145723 18.1558 0.0955454 18.2117 0.0611189 18.2778C0.054328 18.2908 0.0539506 18.3058 0.0481971 18.3194C0.0249947 18.3745 0.00962061 18.4317 0.00641376 18.4928C0.00594217 18.5021 0 18.5101 0 18.5196V35.1134C0 35.3404 0.147043 35.5421 0.361902 35.6093L14.2059 39.9759C14.2561 39.9911 14.3076 40 14.3591 40C14.4044 40 14.4508 39.9936 14.4973 39.981L29.0148 35.906C29.2435 35.8414 29.3992 35.627 29.3905 35.3873L28.8137 18.5018C28.8135 18.4979 28.8111 18.4948 28.8108 18.4909C28.8064 18.4157 28.7879 18.3433 28.7537 18.2778C28.7458 18.2625 28.7319 18.252 28.7225 18.2377C28.6913 18.1899 28.6553 18.1467 28.6095 18.1111C28.6027 18.1058 28.5997 18.0972 28.5925 18.0921C28.5765 18.0809 28.5564 18.0804 28.5394 18.0712C28.512 18.056 28.489 18.035 28.458 18.0249L15.6718 13.8471L22.6531 13.8422C25.8358 14.3076 28.2042 15.7142 29.6944 18.0198C33.1574 23.3782 30.8592 31.9288 30.8353 32.0138C30.7687 32.2586 30.8856 32.516 31.113 32.6238C31.1834 32.6568 31.2575 32.6733 31.3316 32.6733C31.495 32.6733 31.6546 32.5935 31.7538 32.4501C40.8811 19.2184 35.3752 10.1682 35.1427 9.80039ZM14.623 18.0402C14.7826 18.1379 14.9812 18.1429 15.1432 18.0504C15.3066 17.9591 15.4071 17.7854 15.4071 17.5976V14.8533L26.6609 18.5304L14.3603 22.7257L2.20367 18.5504L11.0921 15.8595L14.623 18.0402ZM13.844 38.7736L1.03034 34.7317V19.245L13.844 23.6458V38.7736H13.844ZM14.8743 38.7957V23.6469L27.8099 19.2349L28.3489 35.0145L14.8743 38.7957ZM30.5591 17.4556C28.9005 14.8861 26.2908 13.3249 22.7274 12.8087H14.8919C14.6079 12.8087 14.3768 13.042 14.3768 13.3287V16.6706L4.54853 10.5994L12.8878 1.6709L13.2283 4.27458C13.2647 4.55609 13.5136 4.76163 13.7975 4.72355C13.9559 4.70204 29.8668 2.9467 34.267 10.3469C34.3185 10.4282 39.0128 18.1404 32.3697 29.5597C32.8195 26.4424 33.0356 21.292 30.5591 17.4556Z" fill="#FF5530"/>
</svg>
