<svg width="57" height="28" viewBox="0 0 57 28" fill="none" xmlns="http://www.w3.org/2000/svg">
<g id="Group 5455">
<path id="Vector" d="M3.27044 13.7443C3.96226 13.4886 4.5283 12.9772 4.84277 12.274L7.79874 6.07306C8.49056 4.60274 10 3.64383 11.6352 3.64383H18.1761V2.3653C18.1761 1.02283 19.2453 0 20.5031 0H41.195C41.761 0 42.2013 0.447489 42.2013 1.02283C42.2013 1.59817 41.761 2.04566 41.195 2.04566H20.566C20.3774 2.04566 20.1887 2.23744 20.1887 2.42922V22.6301H37.044C37.4843 20.7123 39.1824 19.242 41.2579 19.242C43.3333 19.242 45.0314 20.7123 45.4717 22.6301H47.6101C47.7987 22.6301 47.9874 22.4384 47.9874 22.2466V19.7534C47.9874 19.1781 48.4277 18.7306 48.9937 18.7306C49.5597 18.7306 50 19.1781 50 19.7534V22.2466C50 23.589 48.9308 24.6119 47.673 24.6119H45.4088C44.9686 26.5297 43.2704 28 41.195 28C39.1195 28 37.4214 26.5297 36.9811 24.6119H19.1195H14.9057C14.4654 26.5297 12.7673 28 10.6918 28C8.61636 28 6.91824 26.5297 6.47799 24.6119H2.76729C1.25786 24.6119 0 23.3333 0 21.7991V18.2831C0.125786 16.2374 1.38365 14.4475 3.27044 13.7443ZM41.195 26.0183C42.5157 26.0183 43.522 24.9315 43.522 23.653C43.522 22.3744 42.4528 21.2877 41.195 21.2877C39.8742 21.2877 38.8679 22.3744 38.8679 23.653C38.8679 24.9315 39.8742 26.0183 41.195 26.0183ZM10.7547 26.0183C12.0755 26.0183 13.0818 24.9315 13.0818 23.653C13.0818 22.3105 12.0126 21.2877 10.7547 21.2877C9.43396 21.2877 8.42767 22.3744 8.42767 23.653C8.42767 24.9315 9.49686 26.0183 10.7547 26.0183ZM2.07547 21.7991C2.07547 22.2466 2.45283 22.6301 2.89308 22.6301H6.60378C7.04403 20.7123 8.74214 19.242 10.8176 19.242C12.8302 19.242 14.5912 20.7123 15.0314 22.6301H18.3019V13.6804H9.24528C8.67924 13.6804 8.23899 13.2329 8.23899 12.6575C8.23899 12.0822 8.67924 11.6347 9.24528 11.6347H18.1761V5.56164H11.6352C10.7547 5.56164 9.93711 6.07306 9.55975 6.84018L6.60378 13.0411C6.03773 14.1918 5.09434 15.0228 3.89937 15.4703C2.7673 15.8539 2.01258 16.9406 2.01258 18.1552V21.7991H2.07547Z" fill="#FF5530"/>
<path id="Vector_2" d="M45.9586 7H37.0414C36.4556 7 36 6.5625 36 6C36 5.4375 36.4556 5 37.0414 5H45.9586C46.5444 5 47 5.4375 47 6C47 6.5625 46.4793 7 45.9586 7Z" fill="#FF5530"/>
<path id="Vector_3" d="M51.0303 7H48.9697C48.4242 7 48 6.5625 48 6C48 5.4375 48.4242 5 48.9697 5H51.0303C51.5758 5 52 5.4375 52 6C52 6.5625 51.5152 7 51.0303 7Z" fill="#FF5530"/>
<path id="Vector_4" d="M45.9416 11H31.0584C30.463 11 30 10.5625 30 10C30 9.4375 30.463 9 31.0584 9H45.9416C46.537 9 47 9.4375 47 10C46.9339 10.5625 46.4708 11 45.9416 11Z" fill="#FF5530"/>
<path id="Vector_5" d="M51.0303 11H48.9697C48.4242 11 48 10.5625 48 10C48 9.4375 48.4242 9 48.9697 9H51.0303C51.5758 9 52 9.4375 52 10C51.9394 10.5625 51.5152 11 51.0303 11Z" fill="#FF5530"/>
<path id="Vector_6" d="M40 14C40 13.4375 40.459 13 41.0492 13H50.9508C51.541 13 52 13.4375 52 14C52 14.5625 51.541 15 50.9508 15H41.0492C40.459 15 40 14.5625 40 14Z" fill="#FF5530"/>
<path id="Vector_7" d="M54.0303 14H56.0303C56.5758 14 57 14.4375 57 15C57 15.5625 56.5758 16 56.0303 16H53.9697C53.4242 16 53 15.5625 53 15C53.0606 14.4375 53.4848 14 54.0303 14Z" fill="#FF5530"/>
</g>
</svg>
