<svg width="38" height="42" viewBox="0 0 38 42" fill="none" xmlns="http://www.w3.org/2000/svg">
<g id="Group 5462">
<path id="Vector" d="M22.9317 16.7928L17.0402 23.4669L14.2487 20.9969C13.9025 20.6909 13.3701 20.7221 13.0625 21.0691C12.7549 21.4169 12.7877 21.9477 13.1347 22.2553L16.5562 25.2822C16.7105 25.4184 16.909 25.4931 17.1132 25.4931C17.1305 25.4931 17.1477 25.4922 17.1649 25.4914C17.3872 25.4775 17.5956 25.3758 17.7432 25.2092L24.1917 17.9052C24.4985 17.5573 24.4657 17.0266 24.1179 16.719C23.7701 16.4122 23.2402 16.445 22.9317 16.7928Z" fill="#FF5530"/>
<path id="Vector_2" d="M18.6267 10.7061C12.9502 10.7061 8.33179 15.3244 8.33179 21.001C8.33179 26.6776 12.9502 31.296 18.6267 31.296C24.3033 31.296 28.9217 26.6776 28.9217 21.001C28.9217 15.3244 24.3033 10.7061 18.6267 10.7061ZM18.6267 29.616C13.8763 29.616 10.0118 25.7515 10.0118 21.001C10.0118 16.2506 13.8763 12.3861 18.6267 12.3861C23.3772 12.3861 27.2417 16.2506 27.2417 21.001C27.2417 25.7515 23.3772 29.616 18.6267 29.616Z" fill="#FF5530"/>
<path id="Vector_3" d="M37.2535 13.3915C37.224 11.49 37.128 9.51221 36.968 7.51228C36.9106 6.81173 36.5587 6.354 35.8893 6.11282C30.3883 4.13751 24.8938 2.14578 19.4002 0.149134C18.8596 -0.0461008 18.3658 -0.0502024 17.8481 0.140111C12.3561 2.13922 6.86084 4.13012 1.36145 6.10626C0.701916 6.34333 0.350821 6.79615 0.287657 7.49177C-0.079024 11.581 -0.0954303 15.2454 0.240079 18.6948C0.726525 23.7045 1.83231 27.6781 3.71985 31.1997C6.67299 36.7081 11.0674 40.242 16.7817 41.7014C17.3207 41.8392 17.9548 42.0008 18.6471 42.0008C18.9129 42.0008 19.1877 41.977 19.4691 41.9188C20.9998 41.6013 22.3107 41.1993 23.4763 40.6883C28.7665 38.3651 32.4735 34.344 34.809 28.3942C36.4594 24.1901 37.2133 19.5684 37.2535 13.4103V13.3915ZM33.2454 27.7806C31.0806 33.2956 27.664 37.0149 22.8012 39.1494C21.7446 39.6128 20.5429 39.9803 19.1278 40.2732C18.4937 40.4077 17.8358 40.2363 17.1968 40.0739C11.8844 38.7162 7.96006 35.5539 5.20052 30.4056C3.42126 27.0866 2.37618 23.314 1.91188 18.5324C1.59032 15.215 1.60344 11.6828 1.9611 7.67634C7.45311 5.70267 12.9394 3.71504 18.424 1.7184C18.552 1.67082 18.6414 1.66097 18.8268 1.72824C24.2934 3.71586 29.7624 5.69692 35.2962 7.68947C35.4513 9.63444 35.544 11.5589 35.5735 13.4087C35.5341 19.3461 34.8155 23.7791 33.2454 27.7806Z" fill="#FF5530"/>
</g>
</svg>
