<svg width="38" height="35" viewBox="0 0 38 35" fill="none" xmlns="http://www.w3.org/2000/svg">
<g id="Group">
<path id="Vector" d="M10.0157 34.3017C10.0601 34.346 10.1044 34.3903 10.1487 34.4346L10.193 34.479C10.2373 34.479 10.2373 34.5233 10.2816 34.5233C10.326 34.5233 10.326 34.5233 10.3703 34.5676C10.4146 34.5676 10.4146 34.5676 10.4589 34.6119C10.5032 34.6119 10.5919 34.6119 10.6362 34.6119H36.3403C36.8278 34.6119 37.2266 34.213 37.2266 33.7256V7.97714C37.2266 7.97714 37.2266 7.97714 37.2266 7.93282C37.2266 7.8885 37.2266 7.8885 37.2266 7.84418C37.2266 7.79987 37.2266 7.79987 37.2266 7.75555C37.2266 7.71123 37.2266 7.71123 37.1823 7.66691C37.1823 7.6226 37.1823 7.6226 37.138 7.57828C37.138 7.53396 37.0937 7.53396 37.0937 7.48964C37.0937 7.44533 37.0494 7.44533 37.0494 7.40101C37.0494 7.35669 37.005 7.35669 37.005 7.35669L36.9607 7.31237L36.9164 7.26806C36.8721 7.26806 36.8721 7.22374 36.8278 7.22374C36.8278 7.22374 36.8278 7.22374 36.7835 7.22374L24.3746 0.132952C24.2416 0.0443175 24.1087 0 23.9314 0H16.2202H6.82488H0.886348C0.398857 0 0 0.398857 0 0.886348V23.9314C0 24.153 0.0886348 24.3746 0.265904 24.5519L10.0157 34.3017ZM35.4539 32.7949H11.5225V8.86348H19.9428V15.0679C19.9428 15.5554 20.3417 15.9543 20.8292 15.9543H25.7041C26.1916 15.9543 26.5905 15.5554 26.5905 15.0679V8.86348H29.5154H35.4539V32.7949ZM21.7155 14.1816V8.86348H24.8178V14.1816H21.7155ZM23.7098 1.7727L33.0165 7.09079H26.8564L18.8792 1.7727H23.7098ZM15.6884 1.7727L23.6655 7.09079H20.8292H20.6519L12.6748 1.7727H15.6884ZM9.48393 1.7727L17.4611 7.09079H10.9464L3.94425 1.7727H9.48393ZM1.7727 2.34882L9.74983 8.42031V31.554L1.7727 23.5769V2.34882Z" fill="#FF5530"/>
</g>
</svg>
