<svg width="12" height="12" viewBox="0 0 12 12" fill="none" xmlns="http://www.w3.org/2000/svg">
<g id="rating">
<path id="rating_2" d="M5.57279 1.19964C5.59589 1.1406 5.63523 1.09008 5.6858 1.05453C5.73636 1.01898 5.79588 1 5.85677 1C5.91766 1 5.97718 1.01898 6.02775 1.05453C6.07832 1.09008 6.11765 1.1406 6.14075 1.19964L7.30123 4.12481C7.32295 4.17955 7.35866 4.22694 7.40443 4.26178C7.4502 4.29661 7.50425 4.31754 7.56063 4.32226L10.5741 4.57523C10.8466 4.59813 10.9569 4.95469 10.7494 5.14069L8.45352 7.20222C8.41063 7.24068 8.37866 7.29076 8.36113 7.34699C8.3436 7.40323 8.34118 7.46343 8.35413 7.52101L9.05588 10.603C9.06998 10.6648 9.06629 10.7297 9.04526 10.7893C9.02423 10.8489 8.9868 10.9007 8.93772 10.938C8.88863 10.9754 8.83008 10.9967 8.76947 10.9992C8.70885 11.0017 8.64889 10.9853 8.59715 10.9521L6.01678 9.30095C5.96858 9.27016 5.91322 9.25387 5.85677 9.25387C5.80032 9.25387 5.74496 9.27016 5.69676 9.30095L3.1164 10.9527C3.06466 10.9859 3.00469 11.0023 2.94408 10.9998C2.88346 10.9972 2.82491 10.976 2.77583 10.9386C2.72674 10.9013 2.68932 10.8495 2.66829 10.7899C2.64726 10.7302 2.64356 10.6654 2.65766 10.6036L3.35942 7.52101C3.37243 7.46343 3.37004 7.40321 3.3525 7.34696C3.33497 7.29072 3.30297 7.24064 3.26002 7.20222L0.96418 5.14069C0.918205 5.09926 0.884945 5.04451 0.868583 4.98332C0.852221 4.92214 0.853488 4.85724 0.872224 4.79681C0.89096 4.73637 0.926329 4.68309 0.973882 4.64367C1.02144 4.60424 1.07905 4.58043 1.13948 4.57523L4.15291 4.32226C4.2093 4.31754 4.26335 4.29661 4.30911 4.26178C4.35488 4.22694 4.39059 4.17955 4.41231 4.12481L5.57279 1.20021V1.19964Z" fill="#F5B100" stroke="#F5B100" stroke-linecap="round" stroke-linejoin="round"/>
</g>
</svg>
