<svg width="12" height="12" viewBox="0 0 12 12" fill="none" xmlns="http://www.w3.org/2000/svg">
<g id="rating">
<path id="rating_2" d="M6.14421 1.19964C6.1673 1.1406 6.20664 1.09008 6.25721 1.05453C6.30778 1.01898 6.36729 1 6.42818 1C6.48908 1 6.54859 1.01898 6.59916 1.05453C6.64973 1.09008 6.68906 1.1406 6.71216 1.19964L7.87264 4.12481C7.89436 4.17955 7.93007 4.22694 7.97584 4.26178C8.02161 4.29661 8.07566 4.31754 8.13204 4.32226L11.1455 4.57523C11.418 4.59813 11.5283 4.95469 11.3208 5.14069L9.02493 7.20222C8.98204 7.24068 8.95007 7.29076 8.93254 7.34699C8.91501 7.40323 8.91259 7.46343 8.92554 7.52101L9.62729 10.603C9.64139 10.6648 9.6377 10.7297 9.61667 10.7893C9.59564 10.8489 9.55822 10.9007 9.50913 10.938C9.46004 10.9754 9.4015 10.9967 9.34088 10.9992C9.28026 11.0017 9.2203 10.9853 9.16856 10.9521L6.58819 9.30095C6.53999 9.27016 6.48463 9.25387 6.42818 9.25387C6.37173 9.25387 6.31637 9.27016 6.26817 9.30095L3.68781 10.9527C3.63607 10.9859 3.5761 11.0023 3.51549 10.9998C3.45487 10.9972 3.39632 10.976 3.34724 10.9386C3.29815 10.9013 3.26073 10.8495 3.2397 10.7899C3.21867 10.7302 3.21497 10.6654 3.22908 10.6036L3.93083 7.52101C3.94384 7.46343 3.94145 7.40321 3.92391 7.34696C3.90638 7.29072 3.87438 7.24064 3.83143 7.20222L1.53559 5.14069C1.48962 5.09926 1.45636 5.04451 1.43999 4.98332C1.42363 4.92214 1.4249 4.85724 1.44364 4.79681C1.46237 4.73637 1.49774 4.68309 1.54529 4.64367C1.59285 4.60424 1.65046 4.58043 1.71089 4.57523L4.72432 4.32226C4.78071 4.31754 4.83476 4.29661 4.88052 4.26178C4.92629 4.22694 4.962 4.17955 4.98372 4.12481L6.14421 1.20021V1.19964Z" fill="#D0D0D0" stroke="#D0D0D0" stroke-linecap="round" stroke-linejoin="round"/>
</g>
</svg>
