<svg width="46" height="46" viewBox="0 0 46 46" fill="none" xmlns="http://www.w3.org/2000/svg">
<g id="Group 3987" filter="url(#filter0_d_32_42659)">
<g id="Group 74">
<circle id="Ellipse 1" cx="22.9546" cy="22.8636" r="8.86364" fill="white"/>
</g>
<g id="Medal 5">
<g id="Group">
<path id="Vector" d="M26.0597 24.2045C26.05 24.1682 26.0311 24.135 26.0048 24.1082C25.9785 24.0813 25.9458 24.0616 25.9097 24.0511C25.8736 24.0405 25.8355 24.0394 25.7988 24.0479C25.7622 24.0564 25.7284 24.0741 25.7007 24.0994C24.9963 24.7671 24.0881 25.1788 23.1218 25.2685C23.0897 25.2716 23.0587 25.2819 23.031 25.2984C23.0033 25.315 22.9796 25.3375 22.9616 25.3642C22.9437 25.391 22.9318 25.4214 22.9269 25.4533C22.9221 25.4852 22.9243 25.5178 22.9335 25.5487C23.2767 26.9726 23.5023 28.4224 23.6078 29.8833C23.6111 29.9295 23.629 29.9735 23.6589 30.0089C23.6888 30.0443 23.7291 30.0693 23.7742 30.0803H23.8267C23.8633 30.0803 23.8994 30.071 23.9315 30.0534C23.9636 30.0358 23.9908 30.0104 24.0106 29.9796L25.0001 28.3946C25.6357 28.7059 26.2251 29.1038 26.7515 29.5768C26.7822 29.6026 26.8193 29.6195 26.859 29.6256C26.8986 29.6317 26.9392 29.6268 26.9762 29.6115C27.0133 29.5961 27.0454 29.5709 27.0691 29.5385C27.0927 29.5061 27.1071 29.4679 27.1105 29.4279C27.1105 28.2326 26.4537 25.6406 26.0597 24.2045Z" fill="#414141"/>
<path id="Vector_2" d="M22.3426 25.2683C21.3805 25.1837 20.4743 24.7799 19.7681 24.1212C19.7403 24.0958 19.7065 24.0781 19.6699 24.0696C19.6333 24.0611 19.5951 24.0622 19.559 24.0728C19.523 24.0833 19.4902 24.103 19.464 24.1299C19.4377 24.1568 19.4188 24.1899 19.4091 24.2263C19.0106 25.6405 18.3539 28.2325 18.3539 29.4278C18.3545 29.4706 18.3676 29.5124 18.3917 29.5478C18.4158 29.5832 18.4498 29.6108 18.4894 29.6271C18.5291 29.6434 18.5726 29.6478 18.6147 29.6396C18.6567 29.6314 18.6954 29.611 18.726 29.581C19.2524 29.108 19.8418 28.7101 20.4774 28.3989L21.4669 29.9838C21.4867 30.0147 21.5139 30.04 21.546 30.0576C21.5782 30.0752 21.6142 30.0845 21.6508 30.0845H21.7033C21.7484 30.0735 21.7887 30.0485 21.8186 30.0131C21.8485 29.9777 21.8664 29.9337 21.8697 29.8875C21.9743 28.4207 22.1998 26.9651 22.544 25.5354C22.5532 25.5045 22.5554 25.4719 22.5506 25.44C22.5457 25.4081 22.5339 25.3777 22.5159 25.3509C22.4979 25.3242 22.4742 25.3017 22.4465 25.2851C22.4188 25.2686 22.3878 25.2584 22.3557 25.2552L22.3426 25.2683Z" fill="#414141"/>
<path id="Vector_3" d="M26.6728 20.89C26.6728 20.1106 26.4417 19.3488 26.0087 18.7008C25.5758 18.0527 24.9603 17.5477 24.2403 17.2494C23.5202 16.9512 22.7279 16.8731 21.9635 17.0252C21.1991 17.1772 20.497 17.5525 19.9459 18.1036C19.3948 18.6547 19.0195 19.3569 18.8675 20.1213C18.7154 20.8856 18.7935 21.678 19.0917 22.398C19.39 23.118 19.895 23.7335 20.543 24.1665C21.1911 24.5995 21.9529 24.8306 22.7323 24.8306C23.7774 24.8306 24.7797 24.4154 25.5187 23.6764C26.2577 22.9374 26.6728 21.9351 26.6728 20.89ZM25.2849 20.3996L23.9714 21.5687L24.4837 23.2325C24.4973 23.2755 24.4974 23.3218 24.4837 23.3648C24.4701 23.4079 24.4435 23.4457 24.4075 23.473C24.3715 23.5004 24.328 23.5159 24.2828 23.5175C24.2376 23.5191 24.1931 23.5067 24.1553 23.482L22.7323 22.5669L21.502 23.4733C21.4661 23.4989 21.4233 23.5131 21.3792 23.514C21.3351 23.515 21.2918 23.5025 21.2549 23.4784C21.2179 23.4543 21.1892 23.4195 21.1723 23.3788C21.1555 23.338 21.1514 23.2931 21.1605 23.25L21.5239 21.5774L20.1797 20.3996C20.1468 20.372 20.1228 20.3353 20.1106 20.294C20.0985 20.2528 20.0987 20.2089 20.1113 20.1679C20.1239 20.1268 20.1483 20.0903 20.1815 20.063C20.2147 20.0357 20.2552 20.0188 20.2979 20.0143L22.0055 19.8217L22.5221 18.4031C22.5375 18.3608 22.5655 18.3243 22.6023 18.2985C22.6391 18.2727 22.683 18.2589 22.7279 18.2589C22.7729 18.2589 22.8168 18.2727 22.8536 18.2985C22.8904 18.3243 22.9184 18.3608 22.9337 18.4031L23.4504 19.8217L25.1579 20.0143C25.1997 20.0196 25.2391 20.0367 25.2713 20.0637C25.3036 20.0907 25.3274 20.1265 25.3399 20.1667C25.3523 20.2069 25.353 20.2498 25.3417 20.2903C25.3304 20.3309 25.3076 20.3673 25.2761 20.3953L25.2849 20.3996Z" fill="#414141"/>
</g>
</g>
</g>
<defs>
<filter id="filter0_d_32_42659" x="0.0909424" y="0" width="45.7273" height="45.7273" filterUnits="userSpaceOnUse" color-interpolation-filters="sRGB">
<feFlood flood-opacity="0" result="BackgroundImageFix"/>
<feColorMatrix in="SourceAlpha" type="matrix" values="0 0 0 0 0 0 0 0 0 0 0 0 0 0 0 0 0 0 127 0" result="hardAlpha"/>
<feOffset/>
<feGaussianBlur stdDeviation="7"/>
<feComposite in2="hardAlpha" operator="out"/>
<feColorMatrix type="matrix" values="0 0 0 0 0.795833 0 0 0 0 0.795833 0 0 0 0 0.795833 0 0 0 0.35 0"/>
<feBlend mode="normal" in2="BackgroundImageFix" result="effect1_dropShadow_32_42659"/>
<feBlend mode="normal" in="SourceGraphic" in2="effect1_dropShadow_32_42659" result="shape"/>
</filter>
</defs>
</svg>
