<svg width="26" height="27" viewBox="0 0 26 27" fill="none" xmlns="http://www.w3.org/2000/svg">
<g id="Group 5100">
<g id="love">
<circle id="Ellipse 8" cx="13" cy="13.5" r="13" fill="#D9D9D9"/>
</g>
<path id="Vector" d="M13 10.9C12.2821 10.9 11.7 10.318 11.7 9.59999C11.7 8.88202 12.2821 8.29999 13 8.29999C13.718 8.29999 14.3 8.88202 14.3 9.59999C14.3 10.318 13.718 10.9 13 10.9Z" fill="white"/>
<path id="Vector_2" d="M13 14.8C12.2821 14.8 11.7 14.218 11.7 13.5C11.7 12.782 12.2821 12.2 13 12.2C13.718 12.2 14.3 12.782 14.3 13.5C14.3 14.218 13.718 14.8 13 14.8Z" fill="white"/>
<path id="Vector_3" d="M13 18.7C12.2821 18.7 11.7 18.118 11.7 17.4C11.7 16.682 12.2821 16.1 13 16.1C13.718 16.1 14.3 16.682 14.3 17.4C14.3 18.118 13.718 18.7 13 18.7Z" fill="white"/>
</g>
</svg>
