<svg width="26" height="45" viewBox="0 0 26 45" fill="none" xmlns="http://www.w3.org/2000/svg">
<path id="Vector" d="M25.8358 15.9426C26.0066 15.7484 26.048 15.4695 25.9419 15.2323C25.8358 14.9952 25.6004 14.8427 25.343 14.8427H16.6469C16.5098 14.8427 16.383 14.7671 16.3157 14.6459C16.2485 14.5247 16.2524 14.3761 16.3261 14.2588L24.0405 1.77242C24.2617 1.41533 24.2733 0.964402 24.0689 0.596886C23.8659 0.228067 23.4804 0 23.0626 0H12.5517C12.1209 0 11.7251 0.243707 11.5272 0.629468L0.0487735 23.1457C-0.0210751 23.2825 -0.015901 23.448 0.0642956 23.5809C0.145786 23.7139 0.28807 23.7947 0.441995 23.7947H7.62088C7.83948 23.7947 8.04385 23.9042 8.16673 24.0879C8.28832 24.2704 8.3129 24.5023 8.23011 24.707L0.167775 44.7183C0.130264 44.8108 0.165189 44.9177 0.249266 44.9698C0.333343 45.022 0.443289 45.005 0.509257 44.9307L25.8358 15.9426Z" fill="#F85606"/>
</svg>
