<svg width="13" height="12" viewBox="0 0 13 12" fill="none" xmlns="http://www.w3.org/2000/svg">
<path id="Vector" d="M12.3208 0.834136C12.1826 0.343025 11.7133 0 11.1801 0H4.20671C3.59687 0.0116794 3.59544 0.865366 4.20673 0.876506C4.20671 0.876506 11.1801 0.876506 11.1801 0.876506C11.293 0.876506 11.3932 0.951618 11.4232 1.05883L11.9323 2.87347C9.10689 2.87335 5.70773 2.87355 2.87922 2.87347H1.06839L1.57756 1.05925C1.60749 0.951614 1.70768 0.876506 1.82058 0.876506H2.64255C3.25403 0.868293 3.2511 0.00817342 2.64254 0C2.64255 0 1.82058 0 1.82058 0C1.2874 0 0.818154 0.343025 0.679874 0.834565L0.0161257 3.20109C-0.01147 3.26148 0.0059026 3.66852 0.000698239 3.74334C0.000712167 4.35843 0.37934 4.88683 0.924698 5.14693V10.8819C0.924698 11.4979 1.4556 11.9993 2.10847 11.9993C3.57877 11.9979 6.54567 12.0009 8.01919 11.9997C8.0211 11.9993 10.8809 11.9992 10.8832 11.9993C11.541 11.9993 12.076 11.496 12.076 10.8774V10.5883C12.063 10.0088 11.1584 10.0145 11.1475 10.5883C11.1445 10.7872 11.2052 11.1112 10.8832 11.1228C10.8832 11.1228 8.48344 11.1228 8.48344 11.1228V9.28014C8.3991 6.80263 4.59714 6.80679 4.51456 9.28018C4.51456 9.28014 4.51456 11.1228 4.51456 11.1228H2.10847C1.9652 11.1228 1.85322 11.0169 1.85322 10.8819V5.30379C2.25503 5.26214 2.6143 5.09119 2.87919 4.82883C3.47525 5.47475 4.69757 5.47431 5.29343 4.82879C5.59805 5.13061 6.02513 5.32109 6.50036 5.32109C6.97558 5.32109 7.40267 5.13062 7.70728 4.82883C8.01195 5.13062 8.43915 5.32109 8.9146 5.32109C9.38983 5.32109 9.81691 5.13062 10.1215 4.82883C10.3864 5.09119 10.7457 5.26214 11.1475 5.30379V9.11558C11.1475 9.3576 11.3551 9.55383 11.6118 9.55383C11.8684 9.55383 12.076 9.3576 12.076 9.11558V5.14693C12.6214 4.88682 13 4.35843 13 3.74334V3.31172C13 3.28845 12.3208 0.834136 12.3208 0.834136ZM5.44308 9.28014C5.47961 7.9661 7.51843 7.96585 7.55492 9.28017C7.55492 9.28014 7.55492 11.1228 7.55492 11.1228H5.44308V9.28014ZM1.67187 4.44459C1.26527 4.44459 0.933936 4.13449 0.929405 3.75147H2.41479C2.41025 4.13449 2.07892 4.44459 1.67187 4.44459ZM4.08612 4.44459C3.67952 4.44459 3.34818 4.13449 3.34365 3.75147H4.82904C4.8245 4.13449 4.49317 4.44459 4.08612 4.44459ZM6.50037 4.44459C6.09377 4.44459 5.76243 4.13449 5.7579 3.75147H7.24283C7.2383 4.13449 6.90696 4.44459 6.50037 4.44459ZM8.91461 4.44459C8.50756 4.44459 8.17623 4.13449 8.17169 3.75147H9.65708C9.65254 4.13449 9.32121 4.44459 8.91461 4.44459ZM10.5859 3.75147H12.0713C12.0447 4.66282 10.6123 4.66195 10.5859 3.75147Z" fill="#2A2A2A"/>
</svg>
