<svg width="20" height="19" viewBox="0 0 20 19" fill="none" xmlns="http://www.w3.org/2000/svg">
<g id="Group 5302">
<path id="Vector" d="M18.836 2.8254C18.4013 2.31828 17.8217 2.02849 17.1697 2.02849H4.12943L3.62231 0.362231C3.54986 0.289784 3.54986 0.217339 3.47741 0.217339C3.47741 0.144892 3.40497 0.144892 3.40497 0.144892L3.33252 0.0724464C3.26008 0.0724464 3.26007 0 3.18763 0C3.11518 0 3.11518 0 3.04274 0C2.97029 0 2.97029 0 2.89784 0H0.724461C0.289784 0 0 0.289784 0 0.724461C0 1.15914 0.289784 1.44892 0.724461 1.44892H2.39072L2.97029 3.11518L4.85389 11.5189C5.07123 12.5332 5.94058 13.2576 6.95483 13.2576H15.6484C16.6626 13.2576 17.532 12.5332 17.7493 11.5189L19.2707 4.63655C19.4156 4.05698 19.2707 3.33252 18.836 2.8254ZM16.3728 11.2291C16.3004 11.5914 16.0106 11.8087 15.6484 11.8087H6.95483C6.5926 11.8087 6.30281 11.5914 6.23037 11.2291L4.56411 3.47741H17.1697C17.6044 3.47741 17.8942 3.7672 17.8942 4.20188C17.8942 4.27432 17.8942 4.27432 17.8942 4.34677L16.3728 11.2291Z" fill="white"/>
<path id="Vector_2" d="M7.75175 13.9821C6.52017 13.9821 5.57837 14.9239 5.57837 16.1555C5.57837 17.3871 6.52017 18.3289 7.75175 18.3289C8.98334 18.3289 9.92514 17.3871 9.92514 16.1555C9.92514 14.9239 8.98334 13.9821 7.75175 13.9821ZM7.75175 16.88C7.31708 16.88 7.02729 16.5902 7.02729 16.1555C7.02729 15.7208 7.31708 15.431 7.75175 15.431C8.18643 15.431 8.47621 15.7208 8.47621 16.1555C8.47621 16.5902 8.18643 16.88 7.75175 16.88Z" fill="white"/>
<path id="Vector_3" d="M14.9963 13.9821C13.7647 13.9821 12.8229 14.9239 12.8229 16.1555C12.8229 17.3871 13.7647 18.3289 14.9963 18.3289C16.2278 18.3289 17.1696 17.3871 17.1696 16.1555C17.1696 14.9239 16.2278 13.9821 14.9963 13.9821ZM14.9963 16.88C14.5616 16.88 14.2718 16.5902 14.2718 16.1555C14.2718 15.7208 14.5616 15.431 14.9963 15.431C15.4309 15.431 15.7207 15.7208 15.7207 16.1555C15.7207 16.5902 15.4309 16.88 14.9963 16.88Z" fill="white"/>
<path id="Vector_4" d="M12.8229 6.7375H12.0984V6.01304C12.0984 5.57836 11.8086 5.28857 11.3739 5.28857C10.9393 5.28857 10.6495 5.57836 10.6495 6.01304V6.7375H9.92502C9.49035 6.7375 9.20056 7.02728 9.20056 7.46196C9.20056 7.89663 9.49035 8.18642 9.92502 8.18642H10.6495V8.91088C10.6495 9.34556 10.9393 9.63534 11.3739 9.63534C11.8086 9.63534 12.0984 9.34556 12.0984 8.91088V8.18642H12.8229C13.2575 8.18642 13.5473 7.89663 13.5473 7.46196C13.5473 7.02728 13.2575 6.7375 12.8229 6.7375Z" fill="white"/>
</g>
</svg>
